<svg width="248" height="180" viewBox="0 0 248 180" fill="none" xmlns="http://www.w3.org/2000/svg">
<path d="M115.31 94.3881H132.691L148.985 173.97H99.0151L115.31 94.3881Z" fill="#959595"/>
<rect width="248" height="139.731" rx="5" fill="#4F4F4F"/>
<rect x="5.55225" y="5.55225" width="236.896" height="128.627" fill="#636363"/>
<rect x="87.9104" y="173.97" width="73.1045" height="5.55224" rx="2.77612" fill="#68B7FF"/>
<circle cx="24.0598" cy="34.2388" r="2.77612" fill="#808080"/>
<circle cx="24.0598" cy="54.597" r="2.77612" fill="#808080"/>
<circle cx="24.0598" cy="85.1343" r="2.77612" fill="#808080"/>
<circle cx="95.3135" cy="64.7761" r="2.77612" fill="#808080"/>
<circle cx="110.119" cy="54.597" r="2.77612" fill="#808080"/>
<circle cx="110.119" cy="85.1343" r="2.77612" fill="#808080"/>
<rect x="34.2388" y="31.4626" width="73.1045" height="5.55224" rx="2.77612" fill="#808080"/>
<rect x="22.209" y="102.716" width="73.1045" height="5.55224" rx="2.77612" fill="#808080"/>
<rect x="34.2388" y="51.8209" width="69.403" height="5.55224" rx="2.77612" fill="#808080"/>
<rect x="34.2388" y="82.3582" width="69.403" height="5.55224" rx="2.77612" fill="#808080"/>
<rect x="21.2839" y="21.2836" width="69.403" height="5.55224" rx="2.77612" fill="#808080"/>
<rect x="22.209" y="92.5373" width="69.403" height="5.55224" rx="2.77612" fill="#808080"/>
<rect x="21.2837" y="41.6418" width="43.4925" height="5.55224" rx="2.77612" fill="#808080"/>
<rect x="22.209" y="112.896" width="43.4925" height="5.55224" rx="2.77612" fill="#808080"/>
<rect x="21.2837" y="72.1791" width="43.4925" height="5.55224" rx="2.77612" fill="#808080"/>
<rect x="21.2837" y="62" width="19.4328" height="5.55224" rx="2.77612" fill="#808080"/>
<rect x="44.4177" y="62" width="24.0597" height="5.55224" rx="2.77612" fill="#808080"/>
<rect x="72.1792" y="62" width="15.7313" height="5.55224" rx="2.77612" fill="#808080"/>
<rect x="71.2537" y="41.6418" width="43.4925" height="5.55224" rx="2.77612" fill="#808080"/>
<rect x="72.1792" y="112.896" width="43.4925" height="5.55224" rx="2.77612" fill="#808080"/>
<rect x="71.2537" y="72.1791" width="43.4925" height="5.55224" rx="2.77612" fill="#808080"/>
</svg>
