<svg width="500" height="500" viewBox="0 0 500 500" fill="none" xmlns="http://www.w3.org/2000/svg">
<g clip-path="url(#clip0)">
<path d="M250 500C388.071 500 500 388.071 500 250C500 111.929 388.071 0 250 0C111.929 0 0 111.929 0 250C0 388.071 111.929 500 250 500Z" fill="#88A3B6"/>
<path d="M140.413 193.952C140.413 193.952 164.791 220.242 130.375 242.709C95.9578 265.175 177.698 261.351 177.698 261.351L182.478 245.577C182.478 245.577 198.73 210.204 207.334 212.594C215.939 214.984 140.413 193.952 140.413 193.952Z" fill="#F2F2E3"/>
<path d="M140.413 193.952C140.413 193.952 216.417 283.818 244.141 160.969C271.866 38.12 94.0457 129.42 140.413 193.952Z" fill="#F5F4E1"/>
<path d="M177.976 74.8886C173.144 75.4823 152.455 72.6424 151.445 83.285C151.445 83.285 117.842 92.7103 133.721 117.47C119.15 129.193 110.488 140.917 124.16 155.711C120.57 173.583 129.468 188.921 142.311 186.106C154.65 183.107 159.27 178.416 160.286 164.59C160.286 164.59 175.176 158.374 172.042 149.644C172.042 149.644 177.798 139.087 185.199 142.809C195.048 147.761 212.588 132.254 201.598 126.074C201.598 126.074 237.169 116.871 242.009 135.385C242.009 135.385 246.542 141.69 255.503 140.474C264.464 139.259 280.651 115.778 259.448 118.45C259.448 118.45 273.17 90.8313 247.357 91.3093C247.357 91.3093 235.349 64.9507 219.435 80.315C219.435 80.315 216.717 62.1201 193.832 67.5575C193.832 67.5575 186.82 73.802 177.976 74.8886Z" fill="black"/>
<path d="M200.284 145.553L232.908 145.075L229.92 173.875L196.818 171.485L200.284 145.553Z" stroke="black" stroke-width="0.906587"/>
<path d="M167.659 157.623L198.85 159.296" stroke="black" stroke-width="0.633929"/>
<path d="M231.355 160.013L244.619 159.176" stroke="black" stroke-width="0.633929"/>
<path d="M224.106 208.968C224.106 208.968 215.741 208.849 202.834 204.188" stroke="black" stroke-width="0.4976"/>
<path d="M221.985 340.463C221.985 340.463 247.166 301.085 272.01 300.916C284.872 300.828 310.035 323.224 321.19 338.096C332.344 352.969 359.705 383.782 359.705 383.782L347.216 406.036L335.206 400.322C335.206 400.322 302.744 363.886 299.364 359.83C295.984 355.774 285.926 339.478 275.11 338.126C264.294 336.774 244.66 369.144 240.942 371.848C237.224 374.552 221.985 340.463 221.985 340.463Z" fill="#F5F4E1"/>
<path d="M210.083 361.973L188.354 352.293L167.779 358.985C167.779 358.985 183.673 388.024 183.195 388.024C182.717 388.024 210.083 361.973 210.083 361.973Z" fill="#B7A740"/>
<path d="M231.28 327.956L178.551 392.177L255.955 409.416L245.87 375.755L231.28 327.956Z" fill="#B7A740"/>
<path d="M376.231 395.609C376.231 395.609 399.328 403.925 400.068 409.653C400.807 415.381 384.176 423.327 368.839 422.588C353.503 421.848 376.231 395.609 376.231 395.609Z" fill="black"/>
<path d="M341.132 400.29C341.132 400.29 352.782 391.87 356.734 371.752C356.734 371.752 358.35 366.902 367.691 366.183C377.031 365.465 383.498 373.368 383.138 380.194C382.779 387.02 378.468 415.76 373.079 420.071C367.691 424.382 348.3 429.095 341.833 428.736C335.367 428.377 341.132 400.29 341.132 400.29Z" fill="#0C0C0C"/>
<path d="M245.814 430.71L342.146 428.682L341.132 400.29L250.885 393.867L245.814 430.71Z" fill="#F5F4E1"/>
<path d="M115.682 374.939C116.581 386.108 104.528 435.104 187.678 433.414C262.374 431.896 264.743 431.386 264.743 431.386L267.109 391.502L151.511 369.869C151.511 369.869 147.338 362.489 144.148 361.77C135.803 359.889 116.136 365.46 115.682 374.939Z" fill="#BDAC42"/>
<path d="M139.343 233.653C139.343 233.653 116.696 247.511 112.978 262.721C109.26 277.932 85.938 330.322 112.302 357.701L115.682 374.939L188.354 352.293C188.354 352.293 197.48 265.425 183.96 245.145C183.96 245.145 147.455 245.821 139.343 233.653Z" fill="#232323"/>
<path d="M123.682 296.963C123.682 296.963 137.726 364.073 148.242 369.57C158.758 375.067 237.21 389.219 237.21 389.219C237.21 389.219 246.77 395.673 258.96 392.804C271.149 389.936 270.671 381.093 264.098 377.628C257.526 374.162 255.614 376.313 252.985 375.596C250.355 374.879 258.523 374.922 258.582 373.069C258.642 371.217 259.079 370.159 253.224 370.338C247.368 370.517 243.544 374.64 241.871 374.52C240.198 374.401 179.995 348.624 177.008 347.19C174.02 345.756 164.194 295.888 164.194 295.888L123.682 296.963Z" fill="#F5F4E1"/>
<path d="M116.512 310.109C116.512 310.109 120.942 254.636 141.847 252.269C167.181 249.401 170.05 263.741 175.308 300.548L116.512 310.109Z" fill="#292929"/>
</g>
<defs>
<clipPath id="clip0">
<rect width="500" height="500" fill="white"/>
</clipPath>
</defs>
</svg>
