<svg width="140" height="146" viewBox="0 0 140 146" fill="none" xmlns="http://www.w3.org/2000/svg">
<path d="M0 34.1267C0 23.2531 8.95431 14.4382 20 14.4382H120C131.046 14.4382 140 23.2531 140 34.1267V126.006C140 136.88 131.046 145.695 120 145.695H20C8.9543 145.695 0 136.88 0 126.006V34.1267Z" fill="#70919B"/>
<path d="M14.6667 9.18797C14.6667 4.11359 18.8453 0 24 0C29.1546 0 33.3333 4.11359 33.3333 9.18797V21.0011C33.3333 26.0754 29.1546 30.189 24 30.189C18.8453 30.189 14.6667 26.0754 14.6667 21.0011V9.18797Z" fill="#8EB8C6"/>
<path d="M45.3333 9.18797C45.3333 4.11359 49.512 0 54.6666 0C59.8213 0 64 4.11359 64 9.18797V21.0011C64 26.0754 59.8213 30.189 54.6666 30.189C49.512 30.189 45.3333 26.0754 45.3333 21.0011V9.18797Z" fill="#8EB8C6"/>
<path d="M76 9.18797C76 4.11359 80.1787 0 85.3333 0C90.488 0 94.6667 4.11359 94.6667 9.18797V21.0011C94.6667 26.0754 90.488 30.189 85.3333 30.189C80.1787 30.189 76 26.0754 76 21.0011V9.18797Z" fill="#8EB8C6"/>
<path d="M106.667 9.18797C106.667 4.11359 110.845 0 116 0C121.155 0 125.333 4.11359 125.333 9.18797V21.0011C125.333 26.0754 121.155 30.189 116 30.189C110.845 30.189 106.667 26.0754 106.667 21.0011V9.18797Z" fill="#8EB8C6"/>
<path d="M88.2723 51.1901C91.0675 51.1901 93.3334 53.456 93.3334 56.2512C93.3334 57.7648 93.1732 58.9946 92.8529 59.9406C92.5326 60.855 92.2123 61.6276 91.8919 62.2582L65.5616 115.612C65.0171 116.716 64.2483 117.662 63.2553 118.45C62.2623 119.207 60.933 119.585 59.2673 119.585C55.3391 119.585 52.8023 115.43 54.5978 111.936L77.5256 67.3193C78.1342 66.2472 78.7268 65.2697 79.3033 64.3867C80.0078 63.3283 79.2974 61.7852 78.0261 61.7852H48.0721C47.3354 61.7852 46.6947 61.5172 46.1502 60.9812C45.6056 60.4451 45.3334 59.8144 45.3334 59.0892C45.3334 54.7266 48.8699 51.1901 53.2324 51.1901H88.2723Z" fill="#F3F3F3"/>
</svg>
