<svg width="153" height="153" viewBox="0 0 153 153" fill="none" xmlns="http://www.w3.org/2000/svg">
<path fill-rule="evenodd" clip-rule="evenodd" d="M5.13735 76.8065C5.05608 57.8827 12.4945 39.7015 25.8166 26.2614C39.1387 12.8214 57.2536 5.22299 76.1773 5.13743C95.1011 5.05188 113.284 12.4861 126.727 25.8052C140.17 39.1243 147.773 57.2375 147.862 76.1612C147.952 95.0849 140.522 113.269 127.206 126.716C113.89 140.162 95.7787 147.768 76.855 147.862C57.9313 147.957 39.745 140.531 26.2959 127.218C12.8468 113.905 5.23608 95.7948 5.13765 76.8712" fill="#FFEBC6"/>
<path fill-rule="evenodd" clip-rule="evenodd" d="M42.5692 56.4692C42.5613 54.6291 43.2846 52.8612 44.5799 51.5544C45.8753 50.2475 47.6367 49.5087 49.4768 49.5004C51.3168 49.4921 53.0849 50.2149 54.392 51.51C55.6992 52.8051 56.4384 54.5664 56.4471 56.4064C56.4559 58.2465 55.7334 60.0147 54.4386 61.3221C53.1438 62.6295 51.3827 63.3692 49.5427 63.3783C47.7026 63.3875 45.9343 62.6654 44.6265 61.3709C43.3188 60.0764 42.5788 58.3155 42.5692 56.4755" fill="#434332"/>
<path fill-rule="evenodd" clip-rule="evenodd" d="M96.5526 56.4692C96.5447 54.6291 97.268 52.8612 98.5633 51.5544C99.8587 50.2475 101.62 49.5087 103.46 49.5004C105.3 49.4921 107.068 50.2149 108.375 51.51C109.683 52.8051 110.422 54.5664 110.431 56.4064C110.439 58.2465 109.717 60.0147 108.422 61.3221C107.127 62.6295 105.366 63.3692 103.526 63.3783C101.686 63.3875 99.9177 62.6654 98.6099 61.3709C97.3022 60.0764 96.5622 58.3155 96.5526 56.4755" fill="#434332"/>
<path d="M46 107.5C49.3333 112 59.8 121 77 121C94.2 121 104 112 108 107.5" stroke="#434332" stroke-width="1.5"/>
</svg>
